<?xml version="1.0" encoding="utf-8"?>
<!-- Generator: Adobe Illustrator 18.1.0, SVG Export Plug-In . SVG Version: 6.00 Build 0)  -->
<!DOCTYPE svg PUBLIC "-//W3C//DTD SVG 1.1//EN" "http://www.w3.org/Graphics/SVG/1.1/DTD/svg11.dtd">
<svg version="1.1" id="Layer_1" xmlns="http://www.w3.org/2000/svg" xmlns:xlink="http://www.w3.org/1999/xlink" x="0px" y="0px"
	 viewBox="0 0 67.6 69.4" style="enable-background:new 0 0 67.6 69.4;" xml:space="preserve">
<style type="text/css">
	.st0{fill:none;stroke:#87724F;stroke-miterlimit:10;}
	.st1{fill:#87724F;}
</style>
<g>
	<path class="st0" d="M61.1,42.7V26.3c-10.5,0-19-8.5-19-19c0-0.1,0-0.2,0-0.3H24.9c0,0.1,0,0.2,0,0.3c0,10.4-8.3,18.8-18.7,19v16.5
		c10.3,0.2,18.7,8.6,18.7,19h17.2C42.1,51.2,50.6,42.7,61.1,42.7z"/>
	<g>
		<path class="st1" d="M13.7,11.8c2.4,2.4,2.1,3.2,1.4,3.9c-0.7,0.7-1.5,1-3.9-1.4S6.3,6.9,6.3,6.9S11.3,9.4,13.7,11.8z"/>
		<g>
			<circle class="st1" cx="10.2" cy="17" r="1.7"/>
			<circle class="st1" cx="16.3" cy="10.9" r="1.7"/>
		</g>
	</g>
	<g>
		<path class="st1" d="M53.7,11.8c-2.4,2.4-2.1,3.2-1.4,3.9c0.7,0.7,1.5,1,3.9-1.4s4.9-7.4,4.9-7.4S56.1,9.4,53.7,11.8z"/>
		<g>
			<circle class="st1" cx="57.1" cy="17" r="1.7"/>
			<circle class="st1" cx="51" cy="10.9" r="1.7"/>
		</g>
	</g>
	<g>
		<path class="st1" d="M53.7,56.8c-2.4-2.4-2.1-3.2-1.4-3.9c0.7-0.7,1.5-1,3.9,1.4s4.9,7.4,4.9,7.4S56.1,59.3,53.7,56.8z"/>
		<g>
			<circle class="st1" cx="57.1" cy="51.6" r="1.7"/>
			<circle class="st1" cx="51" cy="57.7" r="1.7"/>
		</g>
	</g>
	<g>
		<path class="st1" d="M13.7,56.8c2.4-2.4,2.1-3.2,1.4-3.9c-0.7-0.7-1.5-1-3.9,1.4s-4.9,7.4-4.9,7.4S11.3,59.3,13.7,56.8z"/>
		<g>
			<circle class="st1" cx="10.2" cy="51.6" r="1.7"/>
			<circle class="st1" cx="16.3" cy="57.7" r="1.7"/>
		</g>
	</g>
</g>
<g>
</g>
<g>
</g>
<g>
</g>
<g>
</g>
<g>
</g>
<g>
</g>
<g>
</g>
<g>
</g>
<g>
</g>
<g>
</g>
<g>
</g>
<g>
</g>
<g>
</g>
<g>
</g>
<g>
</g>
</svg>
