<svg xmlns="http://www.w3.org/2000/svg" viewBox="0 0 231.8 222.5" enable-background="new 0 0 231.8 222.5"><style type="text/css">.st0{fill:#BB9D6E;}</style><path class="st0" d="M42.9 212.4c2.5.2 4.7-1.5 5.2-3.9-.2 2.7 1.7 5 4.4 5.3 2.7.2 5.1-1.7 5.3-4.4.3-2.9.9-10.2 1.2-12.8h.2c17.4 1.4 37-11.5 40.9-39.1 1.7-11.9-1.4-23.8-8.6-33.4-4.9-6.5-11.4-11.4-18.7-14.5.5-1.1.9-2.2 1.1-3.5.4-3.1-.4-6.3-2.3-8.8-1.9-2.5-4.7-4.2-7.8-4.6-5.8-.8-11.5 2.8-13.1 8.5-.1.5-.3 1.1-.3 1.6-.2 1.2-.1 2.5.1 3.6-1.3.1-2.6.4-3.8.6l-3.1-8.5c3.1-2.2 5.5-5.4 6.6-9.2.5-1.9.7-3.8.6-5.8l-1.3-21.5c-.1-2-.6-3.9-1.4-5.7l11.6-9.5.8.4c4.1 2 8.7 2.3 13 .8l20.5-7c5.3-1.8 9.4-6.1 10.9-11.5v-.1l10.1-.2c1.7 4.1 4.9 7.6 9.3 9.4l20 8.2c4.1 1.7 8.7 1.7 12.9 0l4.5 5.7c-.9 1.4-1.7 3-2.2 4.7-.6 2.3-.8 4.6-.5 7l2.9 21.4c.9 6.4 5.2 11.5 10.9 13.6l-.2 7.1c-15 .5-29.5 8.4-37.6 22.3-2.6 4.4-4.4 8.8-5.6 13-5.4 18.8 1.8 35.1 13.7 43l.2.1c-1.4 2.3-5.3 8.5-6.9 11-1.4 2.3-.8 5.3 1.5 6.7 2.3 1.4 5.3.8 6.7-1.5-.2.3-.3.6-.4 1-.6 2 .2 4.3 2.1 5.5 2.3 1.4 5.3.8 6.7-1.5.6-.9 5.4-8.5 7.1-11.3.1 0 .1 0 .2.1 15.6 7.9 38.7 3.3 52.6-20.8 10.5-18.1 6.9-40.5-7.3-54.6.9-.8 1.7-1.7 2.4-2.8.5-.9.9-1.8 1.2-2.7 1.5-5.2-.8-10.8-5.5-13.5-5.7-3.3-13-1.4-16.3 4.3-.5.9-.9 1.8-1.2 2.7-.1.2-.1.5-.1.7l-3.7-.9.2-7.2c6.1-1.4 11-5.9 12.7-11.9.6-2.3.8-4.6.5-7l-2.9-21.4c-1.3-9.3-9.9-15.9-19.2-14.6-1.6.2-3 .7-4.4 1.3l-4.3-5.5c.7-1 1.3-2.1 1.8-3.2 3.6-8.8-.7-18.7-9.3-22.3l-20-8.2c-4.2-1.7-8.9-1.7-13.1 0-4.2 1.8-7.5 5-9.2 9.3-.2.6-.5 1.2-.6 1.8l-.3 1.2-9.5.2c0-.1 0-.2-.1-.3-1.5-4.3-4.5-7.8-8.6-9.8-4.1-2-8.7-2.3-13-.8l-20.5 7c-5.3 1.8-9.4 6.1-10.9 11.5-1 3.3-.9 6.9.3 10.2.3.8.6 1.6 1 2.3l-11.1 9.1c-3.1-2-6.7-3-10.4-2.7-7.4.4-13.5 5.4-15.5 12.3-.5 1.9-.7 3.8-.6 5.8l1.4 21.6c.6 9.2 8.4 16.2 17.6 15.9l3 8.3c-11.9 5.3-21.4 15.7-25.1 28.8-.6 2-1 4-1.3 6.1-3.9 27.5 11.4 45.4 28.5 48.9.1 0 .2 0 .2.1-.4 3.2-1.2 12.2-1.3 13.3-.2 2.6 1.8 4.9 4.5 5.2zm161.6-43.2c-8.3 14.2-24.6 24.7-39.8 17-4.7-2.4-10.1-1-12.6 3 2.3-4.1.7-9.5-3.7-12.4-14.2-9.4-13.3-28.7-5-43 9.8-16.8 31.4-22.6 48.2-12.8 16.9 9.8 22.7 31.4 12.9 48.2zm-8.7-59.5c.6-1 1.9-1.4 2.9-.8.8.5 1.2 1.5 1 2.4 0 .2-.1.3-.2.5-.6 1-1.9 1.4-2.9.8-1-.6-1.3-1.9-.8-2.9zm-12.6-48.6l2.9 21.4c.1 1 .1 2-.2 3-.5 1.7-1.5 3.1-2.9 4l.2-6.9c.1-2.7-2-5-4.7-5-2.3-.1-4.3 1.4-4.9 3.5-.1.4-.2.8-.2 1.2l-.2 5.8c-.8-1-1.4-2.2-1.6-3.6l-2.9-21.4c-.1-.5-.1-1 0-1.5l3.4 4.3c1.7 2.1 4.7 2.5 6.9.8 2.1-1.7 2.5-4.7.8-6.9l-3.9-5c3.5-.1 6.8 2.6 7.3 6.3zm-55.2-44.9c1.8-.8 3.8-.8 5.6 0l20 8.2c3.2 1.3 4.9 4.6 4.4 7.9l-2.4-3c-1.7-2.1-4.7-2.5-6.9-.8-.8.7-1.4 1.5-1.7 2.5-.4 1.5-.1 3.1.9 4.4l2.4 3.1c-.8 0-1.6-.2-2.4-.5l-20-8.2c-.4-.2-.8-.4-1.2-.7l3.7-.1c2.7-.1 4.8-2.3 4.8-5-.1-2.7-2.3-4.8-5-4.8l-5.8.1c.9-1.4 2.1-2.5 3.6-3.1zm-62.4 8.8l20.5-7c1.8-.6 3.8-.5 5.6.4.8.4 1.5.9 2.1 1.6h-3.9c-2.2 0-4 1.5-4.6 3.5-.1.5-.2.9-.2 1.4.1 2.7 2.3 4.8 5 4.8l3.8-.1c-.8.9-1.9 1.7-3.1 2.1l-20.5 7c-.5.2-1 .3-1.4.3l3.5-2.9c2.1-1.7 2.4-4.8.7-6.9-1.7-2.1-4.8-2.4-6.9-.7l-5.4 4.4c-.5-3.2 1.5-6.8 4.8-7.9zm-39 60.1l-1.4-21.6c-.3-4 2.9-7.5 6.8-7.8h1.2l-3.3 2.7c-.8.7-1.3 1.5-1.6 2.4-.4 1.5-.1 3.2.9 4.4 1.7 2.1 4.8 2.4 6.9.7l3.7-3 1.4 21.1c.1.8 0 1.7-.3 2.5-.2.7-.5 1.3-.9 1.9l-1.7-4.7c-1-2.4-3.8-3.7-6.3-2.7-1.5.6-2.6 1.8-3 3.3-.3 1-.3 2 .1 3l1.4 3.9c-2.2-1.2-3.8-3.4-3.9-6.1zm33.9 20.6c-.2-.3-.5-.8-.4-1.6.1-1.2 1.3-2 2.4-1.8.8.1 1.2.6 1.4.8.2.3.5.8.4 1.6 0 .1 0 .2-.1.3-.3 1-1.3 1.6-2.3 1.5-.7 0-1.2-.5-1.4-.8zm-39.8 40.5c2.7-19.3 20.6-32.7 39.8-30 9.3 1.3 17.6 6.2 23.3 13.7 5.7 7.5 8.1 16.8 6.7 26.1-3 21.6-17.6 31.7-30.5 30.7-5.2-.4-9.7 2.8-10.5 7.5.5-4.7-3-9.1-8.1-10.1-16.6-3.3-23-21.6-20.7-37.9z" id="Your_Icon_2_"/></svg>