<?xml version="1.0" encoding="utf-8"?>
<!-- Generator: Adobe Illustrator 18.1.0, SVG Export Plug-In . SVG Version: 6.00 Build 0)  -->
<!DOCTYPE svg PUBLIC "-//W3C//DTD SVG 1.1//EN" "http://www.w3.org/Graphics/SVG/1.1/DTD/svg11.dtd">
<svg version="1.1" id="Layer_1" xmlns="http://www.w3.org/2000/svg" xmlns:xlink="http://www.w3.org/1999/xlink" x="0px" y="0px"
	 viewBox="0 0 359.9 205" style="enable-background:new 0 0 359.9 205;" xml:space="preserve">
<style type="text/css">
	.st0{fill:#BB9D6E;}
</style>
<g>
	<path class="st0" d="M267.7,118.3C267.7,118.3,267.7,118.3,267.7,118.3c16.5-4.9,33.5-11.6,49.8-20.5c26.2-15.3,39.7,0.6,29.9,24.6
		c-8.3,22.7-52.5,64.9-90.9,74.6c-14.7-10.4-43.7-17.5-77.1-17.7c-33.4,0.1-62.3,7.2-77.1,17.7c-38.5-9.6-82.6-51.9-90.9-74.6
		c-9.7-24,3.7-39.8,29.9-24.6c16.4,9,33.4,15.6,49.8,20.6c35.2,10.6,67.6,13.2,84.5,13.2l9.3,0C201.9,131.4,233.4,128.6,267.7,118.3
		z"/>
	<g id="XMLID_1_">
		<path class="st0" d="M220.1,11.6c13.7,6.9,36,71.4,44.7,97.9c-33.2,9.6-63.4,12.2-79.8,12.4l-9.3,0c-16.5,0-47.5-2.5-81.7-12.4
			c8.7-26.4,31-91.1,44.7-97.9c15.7-7.9,29.2,5.2,40.1,6.4h-2.1c0.9,0.1,1.7,0.1,2.6,0c0.9,0.1,1.8,0.1,2.6,0H180
			C190.9,16.8,204.4,3.8,220.1,11.6z M214.8,61.7c0-2.9-2.3-5.2-5.2-5.2c-2.6,0-4.8,2-5.1,4.5l-16-2.3l-7-14.3
			c1.9-0.8,3.2-2.6,3.2-4.8c0-2.9-2.3-5.2-5.2-5.2s-5.2,2.3-5.2,5.2c0,2.2,1.4,4.1,3.3,4.8l-7,14.2l-16,2.3
			c-0.3-2.5-2.5-4.5-5.1-4.5c-2.9,0-5.2,2.3-5.2,5.2c0,2.9,2.3,5.2,5.2,5.2c1.8,0,3.3-0.9,4.3-2.2L165,75.8l-2.9,16.7
			c-0.6-0.3-1.3-0.4-2.1-0.4c-2.9,0-5.2,2.3-5.2,5.2c0,2.9,2.3,5.2,5.2,5.2c2.9,0,5.2-2.3,5.2-5.2c0-1.1-0.3-2.1-0.9-2.9l15.1-8
			l15.1,7.9c-0.6,0.8-0.9,1.8-0.9,2.9c0,2.9,2.3,5.2,5.2,5.2c2.9,0,5.2-2.3,5.2-5.2s-2.3-5.2-5.2-5.2c-0.7,0-1.4,0.1-2,0.4L194,75.8
			l11.3-11.1c0.9,1.3,2.5,2.2,4.2,2.2C212.4,66.9,214.8,64.6,214.8,61.7z"/>
	</g>
</g>
<g>
</g>
<g>
</g>
<g>
</g>
<g>
</g>
<g>
</g>
<g>
</g>
<g>
</g>
<g>
</g>
<g>
</g>
<g>
</g>
<g>
</g>
<g>
</g>
<g>
</g>
<g>
</g>
<g>
</g>
</svg>
