<svg xmlns="http://www.w3.org/2000/svg" viewBox="0 0 359.9 205" enable-background="new 0 0 359.9 205"><style type="text/css">.st0{fill:#BB9D6E;}</style><path class="st0" d="M267.7 118.3c16.5-4.9 33.5-11.6 49.8-20.5 26.2-15.3 39.7.6 29.9 24.6-8.3 22.7-52.5 64.9-90.9 74.6-14.7-10.4-43.7-17.5-77.1-17.7-33.4.1-62.3 7.2-77.1 17.7-38.5-9.6-82.6-51.9-90.9-74.6-9.7-24 3.7-39.8 29.9-24.6 16.4 9 33.4 15.6 49.8 20.6 35.2 10.6 67.6 13.2 84.5 13.2h9.3c17-.2 48.5-3 82.8-13.3z"/><path class="st0" d="M220.1 11.6c13.7 6.9 36 71.4 44.7 97.9-33.2 9.6-63.4 12.2-79.8 12.4h-9.3c-16.5 0-47.5-2.5-81.7-12.4 8.7-26.4 31-91.1 44.7-97.9 15.7-7.9 29.2 5.2 40.1 6.4h-2.1c.9.1 1.7.1 2.6 0 .9.1 1.8.1 2.6 0h-1.9c10.9-1.2 24.4-14.2 40.1-6.4zm-5.3 50.1c0-2.9-2.3-5.2-5.2-5.2-2.6 0-4.8 2-5.1 4.5l-16-2.3-7-14.3c1.9-.8 3.2-2.6 3.2-4.8 0-2.9-2.3-5.2-5.2-5.2s-5.2 2.3-5.2 5.2c0 2.2 1.4 4.1 3.3 4.8l-7 14.2-16 2.3c-.3-2.5-2.5-4.5-5.1-4.5-2.9 0-5.2 2.3-5.2 5.2 0 2.9 2.3 5.2 5.2 5.2 1.8 0 3.3-.9 4.3-2.2l11.2 11.2-2.9 16.7c-.6-.3-1.3-.4-2.1-.4-2.9 0-5.2 2.3-5.2 5.2 0 2.9 2.3 5.2 5.2 5.2 2.9 0 5.2-2.3 5.2-5.2 0-1.1-.3-2.1-.9-2.9l15.1-8 15.1 7.9c-.6.8-.9 1.8-.9 2.9 0 2.9 2.3 5.2 5.2 5.2 2.9 0 5.2-2.3 5.2-5.2s-2.3-5.2-5.2-5.2c-.7 0-1.4.1-2 .4l-2.8-16.6 11.3-11.1c.9 1.3 2.5 2.2 4.2 2.2 2.9 0 5.3-2.3 5.3-5.2z" id="XMLID_1_"/></svg>