<?xml version="1.0" encoding="utf-8"?>
<!-- Generator: Adobe Illustrator 18.1.0, SVG Export Plug-In . SVG Version: 6.00 Build 0)  -->
<!DOCTYPE svg PUBLIC "-//W3C//DTD SVG 1.1//EN" "http://www.w3.org/Graphics/SVG/1.1/DTD/svg11.dtd">
<svg version="1.1" id="Layer_1" xmlns="http://www.w3.org/2000/svg" xmlns:xlink="http://www.w3.org/1999/xlink" x="0px" y="0px"
	 viewBox="199 0 534 560" style="enable-background:new 199 0 534 560;" xml:space="preserve">
<style type="text/css">
	.st0{fill:#87724F;}
</style>
<g id="Your_Icon">
	<path class="st0" d="M689.1,384.5c-3.7,0-7.1,1.4-10.1,3.1l-63.4-106.8L679.1,174c2.9,1.9,6.4,3.1,10.1,3.1
		c11.2,0,20.2-9,20.2-20.2c0-11.2-9-20.2-20.2-20.2c-11.2,0-20.2,9-20.2,20.2c0,0.2,0,0.2,0,0.3l-124,1.6L484.2,50.4
		c6-3.4,10.4-9.8,10.4-17.4c0-11.2-9-20.2-20.2-20.2s-20.2,9-20.2,20.2c0,7.6,4.3,13.8,10.4,17.4l-60.8,108.4l-124-1.6
		c0-0.2,0-0.2,0-0.3c0-11.2-9-20.2-20.2-20.2s-20.2,9-20.2,20.2c0,11.2,9,20.2,20.2,20.2c3.7,0,7.1-1.4,10.1-3.1l63.4,106.8
		l-62.9,106.8c-3.1-1.9-6.4-3.1-10.1-3.1c-11.2,0-20.2,9-20.2,20.2c0,11.2,9,20.2,20.2,20.2c11.2,0,20.2-9,20.2-20.2
		c0-0.2,0-0.2,0-0.3l124-1.6l60.8,108.4c-6,3.4-10.4,9.8-10.4,17.4c0,11.2,9,20.2,20.2,20.2c11.2,0,20.2-9,20.2-20.2
		c0-7.6-4.3-13.8-10.4-17.4l60.8-108.4l124,1.6c0,0.2,0,0.2,0,0.3c0,11.2,9,20.2,20.2,20.2c11.2,0,20.2-9,20.2-20.2
		C709.3,393.5,700.3,384.5,689.1,384.5z"/>
</g>
</svg>
