<svg xmlns="http://www.w3.org/2000/svg" viewBox="199 0 534 560" enable-background="new 199 0 534 560"><style type="text/css">.st0{fill:#87724F;}</style><path class="st0" d="M689.1 384.5c-3.7 0-7.1 1.4-10.1 3.1l-63.4-106.8 63.5-106.8c2.9 1.9 6.4 3.1 10.1 3.1 11.2 0 20.2-9 20.2-20.2s-9-20.2-20.2-20.2-20.2 9-20.2 20.2v.3l-124 1.6-60.8-108.4c6-3.4 10.4-9.8 10.4-17.4 0-11.2-9-20.2-20.2-20.2s-20.2 9-20.2 20.2c0 7.6 4.3 13.8 10.4 17.4l-60.8 108.4-124-1.6v-.3c0-11.2-9-20.2-20.2-20.2s-20.2 9-20.2 20.2 9 20.2 20.2 20.2c3.7 0 7.1-1.4 10.1-3.1l63.4 106.8-62.9 106.8c-3.1-1.9-6.4-3.1-10.1-3.1-11.2 0-20.2 9-20.2 20.2s9 20.2 20.2 20.2 20.2-9 20.2-20.2v-.3l124-1.6 60.8 108.4c-6 3.4-10.4 9.8-10.4 17.4 0 11.2 9 20.2 20.2 20.2s20.2-9 20.2-20.2c0-7.6-4.3-13.8-10.4-17.4l60.8-108.4 124 1.6v.3c0 11.2 9 20.2 20.2 20.2s20.2-9 20.2-20.2c-.6-11.2-9.6-20.2-20.8-20.2z" id="Your_Icon"/></svg>